<?xml version="1.0" encoding="UTF-8" standalone="no"?>
<!-- Created with Inkscape (http://www.inkscape.org/) -->

<svg
   width="101.98769mm"
   height="127.51538mm"
   viewBox="0 0 101.98769 127.51538"
   version="1.1"
   id="svg5"
   xml:space="preserve"
   inkscape:export-filename="bitmap.svg"
   inkscape:export-xdpi="96"
   inkscape:export-ydpi="96"
   xmlns:inkscape="http://www.inkscape.org/namespaces/inkscape"
   xmlns:sodipodi="http://sodipodi.sourceforge.net/DTD/sodipodi-0.dtd"
   xmlns="http://www.w3.org/2000/svg"
   xmlns:svg="http://www.w3.org/2000/svg"><sodipodi:namedview
     id="namedview7"
     pagecolor="#ffffff"
     bordercolor="#000000"
     borderopacity="0.25"
     inkscape:showpageshadow="2"
     inkscape:pageopacity="0.0"
     inkscape:pagecheckerboard="0"
     inkscape:deskcolor="#d1d1d1"
     inkscape:document-units="mm"
     showgrid="false" /><defs
     id="defs2" /><g
     inkscape:label="Layer 1"
     inkscape:groupmode="layer"
     id="layer1"
     transform="translate(-44.239858,-68.631163)"><g
       style="fill:#5d97f8;fill-opacity:1"
       id="g204"
       transform="matrix(0.09959734,0,0,0.09959734,44.239857,68.631161)"><path
         d="M 4.756,438.175 A 520.713,520.713 0 0 0 0,489.735 h 777.799 c -2.716,-5.306 -6.365,-10.09 -10.045,-14.772 -132.97,-171.791 -204.498,-156.896 -306.819,-161.26 -34.114,-1.403 -57.249,-1.967 -193.037,-1.967 -72.677,0 -151.688,0.185 -228.628,0.39 -9.96,26.884 -19.566,52.942 -24.243,74.14 h 398.571 v 51.909 z M 783.93,541.696 H 0.399 c 0.82,13.851 2.112,27.517 3.978,40.999 h 723.39 c 32.248,0 50.299,-18.297 56.162,-40.999 z M 45.017,724.306 c 0,0 119.924,294.464 466.443,299.694 207.112,0 385.071,-123.006 465.907,-299.694 z"
         fill="#ffffff"
         id="path192"
         style="fill:#5d97f8;fill-opacity:1" /><path
         d="M 511.454,0 C 319.953,0 153.311,105.16 65.31,260.612 c 68.771,-0.144 202.704,-0.226 202.704,-0.226 h 0.031 v -0.051 c 158.309,0 164.193,0.707 195.118,1.998 l 19.149,0.706 c 66.7,2.224 148.683,9.384 213.19,58.19 35.015,26.471 85.571,84.896 115.708,126.52 27.861,38.499 35.876,82.756 16.933,125.158 -17.436,38.97 -54.952,62.215 -100.383,62.215 H 16.69 c 0,0 4.233,17.944 10.58,37.751 H 997.902 A 510.385,510.385 0 0 0 1024,512.218 C 1024.01,229.355 794.532,0 511.454,0 Z"
         fill="#ffffff"
         id="path194"
         style="fill:#5d97f8;fill-opacity:1" /></g><text
       xml:space="preserve"
       style="font-style:normal;font-variant:normal;font-weight:bold;font-stretch:normal;font-size:25.4px;font-family:Arial;-inkscape-font-specification:'Arial, Bold';font-variant-ligatures:normal;font-variant-caps:normal;font-variant-numeric:normal;font-variant-east-asian:normal;fill:#5d97f8;fill-opacity:1;stroke-width:1.37"
       x="50.565392"
       y="190.80113"
       id="text1679"><tspan
         sodipodi:role="line"
         id="tspan1677"
         style="font-style:normal;font-variant:normal;font-weight:bold;font-stretch:normal;font-size:25.4px;font-family:Arial;-inkscape-font-specification:'Arial, Bold';font-variant-ligatures:normal;font-variant-caps:normal;font-variant-numeric:normal;font-variant-east-asian:normal;stroke-width:1.37"
         x="50.565392"
         y="190.80113">Railway</tspan></text></g></svg>
